
        <svg xmlns="http://www.w3.org/2000/svg" xmlns:xlink="http://www.w3.org/1999/xlink" version="1.1" width="3146.4307504575963" 
        height="761.4399023794997" viewBox="0 0 3146.4307504575963 761.4399023794997">
			
			<g transform="scale(7.3215375228798045) translate(10, 10)">
				<defs id="SvgjsDefs2177"></defs><g id="SvgjsG2178" featureKey="symbolContainer" transform="matrix(1,0,0,1,0,0)" fill="#01aac1"><rect width="101" height="84" rx="8"></rect></g><g id="SvgjsG2179" featureKey="symbolFeature-0" transform="matrix(0.6124999999999999,0,0,0.6124999999999999,20,15)" fill="#ffffff"><polygon xmlns="http://www.w3.org/2000/svg" points="12.5,87.5 43.75,87.5 43.75,62.5 56.25,62.5 56.25,87.5 87.5,87.5 87.5,50 100,50 50,0 0,50 12.5,50 "></polygon></g><g id="SvgjsG2180" featureKey="nameFeature-0" transform="matrix(1.3684835112862617,0,0,1.3684835112862617,118.70094760968296,7.4940742583305955)" fill="#2ea5ab"><path d="M1.68 37.92 c0 -0.36 0.12 -0.72 0.32 -1.12 l10.4 -23.2 c0.56 -1.24 1.56 -2 2.96 -2 l0.24 0 c1.4 0 2.36 0.76 2.92 2 l10.4 23.2 c0.2 0.36 0.28 0.72 0.28 1.04 c0 1.32 -1 2.36 -2.32 2.36 c-1.16 0 -1.96 -0.68 -2.4 -1.72 l-2.28 -5.24 l-13.6 0 l-2.36 5.4 c-0.4 1 -1.24 1.56 -2.28 1.56 c-1.28 0 -2.28 -1 -2.28 -2.28 z M10.48 28.880000000000003 l9.84 0 l-4.92 -11.32 z M34.24 37.8 l0 -24.8 c0 -1.32 1.04 -2.4 2.4 -2.4 s2.44 1.08 2.44 2.4 l0 24.8 c0 1.36 -1.08 2.4 -2.44 2.4 c-1.32 0 -2.4 -1.04 -2.4 -2.4 z M45.32 13.440000000000001 l0 -0.24 c0 -1.44 1.2 -2.36 2.76 -2.36 s2.76 0.92 2.76 2.36 l0 0.24 c0 1.44 -1.2 2.4 -2.76 2.4 s-2.76 -0.96 -2.76 -2.4 z M45.68 37.8 l0 -16.72 c0 -1.36 1.04 -2.44 2.4 -2.44 s2.44 1.08 2.44 2.44 l0 16.72 c0 1.36 -1.08 2.4 -2.44 2.4 c-1.32 0 -2.4 -1.04 -2.4 -2.4 z M69.39999999999999 37.76 l0 -23.52 c0 -1.36 1.08 -2.44 2.48 -2.44 c1.36 0 2.44 1.08 2.44 2.44 l0 9.4 l13.36 0 l0 -9.4 c0 -1.36 1.08 -2.44 2.44 -2.44 c1.4 0 2.48 1.08 2.48 2.44 l0 23.52 c0 1.36 -1.08 2.44 -2.48 2.44 c-1.36 0 -2.44 -1.08 -2.44 -2.44 l0 -9.56 l-13.36 0 l0 9.56 c0 1.36 -1.08 2.44 -2.44 2.44 c-1.4 0 -2.48 -1.08 -2.48 -2.44 z M109.28 40.48 c-6.44 0 -11.2 -4.92 -11.2 -10.92 l0 -0.08 c0 -6.04 4.8 -11.04 11.28 -11.04 s11.24 4.92 11.24 10.96 l0 0.08 c0 6 -4.8 11 -11.32 11 z M109.36 36.24 c3.92 0 6.4 -3.04 6.4 -6.68 l0 -0.08 c0 -3.72 -2.68 -6.8 -6.48 -6.8 c-3.88 0 -6.36 3.04 -6.36 6.72 l0 0.08 c0 3.68 2.68 6.76 6.44 6.76 z M132.76 40.4 c-2.68 0 -5.6 -0.84 -8.04 -2.52 c-0.52 -0.28 -0.92 -0.88 -0.92 -1.68 c0 -1.08 0.84 -1.96 1.96 -1.96 c0.4 0 0.76 0.12 1.04 0.28 c2.04 1.36 4.16 2.04 6.08 2.04 c2.08 0 3.28 -0.88 3.28 -2.28 l0 -0.08 c0 -1.64 -2.24 -2.2 -4.72 -2.96 c-3.12 -0.88 -6.6 -2.16 -6.6 -6.2 l0 -0.08 c0 -4 3.32 -6.44 7.52 -6.44 c2.24 0 4.6 0.64 6.64 1.72 c0.68 0.36 1.16 1 1.16 1.84 c0 1.12 -0.88 1.96 -2 1.96 c-0.4 0 -0.64 -0.08 -0.96 -0.24 c-1.72 -0.88 -3.48 -1.44 -4.96 -1.44 c-1.88 0 -2.96 0.88 -2.96 2.08 l0 0.08 c0 1.56 2.28 2.2 4.76 3 c3.08 0.96 6.56 2.36 6.56 6.16 l0 0.08 c0 4.44 -3.44 6.64 -7.84 6.64 z M152.64000000000001 40.36 c-3.56 0 -6.08 -1.56 -6.08 -6.2 l0 -11.12 l-0.8 0 c-1.16 0 -2.08 -0.92 -2.08 -2.08 s0.92 -2.08 2.08 -2.08 l0.8 0 l0 -3.6 c0 -1.32 1.08 -2.4 2.44 -2.4 c1.32 0 2.4 1.08 2.4 2.4 l0 3.6 l3.8 0 c1.16 0 2.12 0.92 2.12 2.08 s-0.96 2.08 -2.12 2.08 l-3.8 0 l0 10.36 c0 1.88 0.96 2.64 2.6 2.64 c0.56 0 1.04 -0.12 1.2 -0.12 c1.08 0 2.04 0.88 2.04 2 c0 0.88 -0.6 1.6 -1.28 1.88 c-1.04 0.36 -2.04 0.56 -3.32 0.56 z M165.64000000000001 27.96 l10.84 0 c-0.32 -3.12 -2.16 -5.56 -5.36 -5.56 c-2.96 0 -5.04 2.28 -5.48 5.56 z M179.28 37.68 c-1.92 1.72 -4.32 2.8 -7.6 2.8 c-6.12 0 -10.84 -4.44 -10.84 -10.96 l0 -0.08 c0 -6.04 4.28 -11 10.32 -11 c6.72 0 10.04 5.52 10.04 10.4 c0 1.36 -1.04 2.32 -2.28 2.32 l-13.24 0 c0.52 3.44 2.96 5.36 6.08 5.36 c2.04 0 3.64 -0.72 5 -1.84 c0.36 -0.28 0.68 -0.44 1.24 -0.44 c1.08 0 1.92 0.84 1.92 1.96 c0 0.6 -0.28 1.12 -0.64 1.48 z M186.44 37.8 l0 -24.8 c0 -1.32 1.04 -2.4 2.4 -2.4 s2.44 1.08 2.44 2.4 l0 24.8 c0 1.36 -1.08 2.4 -2.44 2.4 c-1.32 0 -2.4 -1.04 -2.4 -2.4 z M204.84 40.4 c-2.68 0 -5.6 -0.84 -8.04 -2.52 c-0.52 -0.28 -0.92 -0.88 -0.92 -1.68 c0 -1.08 0.84 -1.96 1.96 -1.96 c0.4 0 0.76 0.12 1.04 0.28 c2.04 1.36 4.16 2.04 6.08 2.04 c2.08 0 3.28 -0.88 3.28 -2.28 l0 -0.08 c0 -1.64 -2.24 -2.2 -4.72 -2.96 c-3.12 -0.88 -6.6 -2.16 -6.6 -6.2 l0 -0.08 c0 -4 3.32 -6.44 7.52 -6.44 c2.24 0 4.6 0.64 6.64 1.72 c0.68 0.36 1.16 1 1.16 1.84 c0 1.12 -0.88 1.96 -2 1.96 c-0.4 0 -0.64 -0.08 -0.96 -0.24 c-1.72 -0.88 -3.48 -1.44 -4.96 -1.44 c-1.88 0 -2.96 0.88 -2.96 2.08 l0 0.08 c0 1.56 2.28 2.2 4.76 3 c3.08 0.96 6.56 2.36 6.56 6.16 l0 0.08 c0 4.44 -3.44 6.64 -7.84 6.64 z"></path></g>
			</g>
		</svg>
	